<?xml version="1.0" encoding="UTF-8"?><svg id="Layer_1" xmlns="http://www.w3.org/2000/svg" viewBox="0 0 465 131"><defs><style>.cls-1{fill:#71b5e4;stroke-width:0px;}</style></defs><path class="cls-1" d="M38.52,129.42c-5.52,0-10.62-.99-15.3-2.97-4.68-1.98-8.76-4.83-12.24-8.55-3.48-3.72-6.18-8.16-8.1-13.32-1.92-5.16-2.88-10.86-2.88-17.1v-35.82c0-2.04.21-3.87.63-5.49.42-1.62,1.41-2.91,2.97-3.87,1.56-.96,3.96-1.44,7.2-1.44,3.48,0,5.97.48,7.47,1.44,1.5.96,2.43,2.28,2.79,3.96.36,1.68.54,3.54.54,5.58v35.64c0,4.32.75,8.04,2.25,11.16,1.5,3.12,3.69,5.55,6.57,7.29,2.88,1.74,6.42,2.61,10.62,2.61s7.98-.87,10.98-2.61c3-1.74,5.34-4.2,7.02-7.38,1.68-3.18,2.52-6.87,2.52-11.07v-35.82c0-2.04.21-3.9.63-5.58.42-1.68,1.38-2.97,2.88-3.87,1.5-.9,3.99-1.35,7.47-1.35s5.76.48,7.2,1.44c1.44.96,2.37,2.28,2.79,3.96.42,1.68.63,3.54.63,5.58v67.32c0,1.8-.21,3.48-.63,5.04-.42,1.56-1.38,2.82-2.88,3.78-1.5.96-3.93,1.44-7.29,1.44-2.4,0-4.32-.27-5.76-.81-1.44-.54-2.49-1.26-3.15-2.16-.66-.9-1.08-1.83-1.26-2.79-.18-.96-.27-1.92-.27-2.88l1.62-4.68c-.84.96-1.98,2.19-3.42,3.69-1.44,1.5-3.21,3-5.31,4.5-2.1,1.5-4.5,2.73-7.2,3.69-2.7.96-5.73,1.44-9.09,1.44Z"/><path class="cls-1" d="M111.6,129.6c-3.36,0-5.79-.51-7.29-1.53-1.5-1.02-2.43-2.37-2.79-4.05-.36-1.68-.54-3.54-.54-5.58V51.66c0-2.04.21-3.9.63-5.58.42-1.68,1.38-2.97,2.88-3.87,1.5-.9,3.93-1.35,7.29-1.35s5.61.42,7.11,1.26c1.5.84,2.46,1.92,2.88,3.24.42,1.32.63,2.52.63,3.6l-1.44,3.24c.6-.96,1.44-2.13,2.52-3.51,1.08-1.38,2.52-2.76,4.32-4.14,1.8-1.38,3.96-2.52,6.48-3.42,2.52-.9,5.52-1.35,9-1.35,1.44,0,2.97.15,4.59.45,1.62.3,3.24.72,4.86,1.26s3.09,1.23,4.41,2.07c1.32.84,2.34,1.83,3.06,2.97.72,1.14,1.08,2.43,1.08,3.87,0,3.84-.96,7.08-2.88,9.72-1.92,2.64-4.2,3.96-6.84,3.96-1.8,0-3.12-.18-3.96-.54-.84-.36-1.53-.75-2.07-1.17-.54-.42-1.32-.81-2.34-1.17-1.02-.36-2.61-.54-4.77-.54-1.8,0-3.63.3-5.49.9-1.86.6-3.57,1.5-5.13,2.7-1.56,1.2-2.82,2.7-3.78,4.5-.96,1.8-1.44,3.9-1.44,6.3v43.74c0,2.04-.18,3.87-.54,5.49-.36,1.62-1.32,2.91-2.88,3.87-1.56.96-4.08,1.44-7.56,1.44Z"/><path class="cls-1" d="M206.1,130.86c-5.64,0-11.22-1.14-16.74-3.42-5.52-2.28-10.47-5.43-14.85-9.45-4.38-4.02-7.83-8.82-10.35-14.4-2.52-5.58-3.78-11.67-3.78-18.27s1.17-12.3,3.51-17.82c2.34-5.52,5.61-10.38,9.81-14.58,4.2-4.2,9.03-7.47,14.49-9.81,5.46-2.34,11.31-3.51,17.55-3.51,8.52,0,16.2,2.01,23.04,6.03,6.84,4.02,12.3,9.45,16.38,16.29,4.08,6.84,6.12,14.58,6.12,23.22,0,6.84-1.26,13.08-3.78,18.72-2.52,5.64-5.94,10.47-10.26,14.49-4.32,4.02-9.18,7.11-14.58,9.27-5.4,2.16-10.92,3.24-16.56,3.24ZM205.74,109.44c3.96,0,7.77-.99,11.43-2.97,3.66-1.98,6.66-4.83,9-8.55,2.34-3.72,3.51-8.1,3.51-13.14,0-4.68-1.02-8.82-3.06-12.42-2.04-3.6-4.89-6.39-8.55-8.37-3.66-1.98-7.83-2.97-12.51-2.97-4.32,0-8.28,1.05-11.88,3.15-3.6,2.1-6.45,4.95-8.55,8.55-2.1,3.6-3.15,7.68-3.15,12.24,0,5.04,1.14,9.39,3.42,13.05,2.28,3.66,5.25,6.48,8.91,8.46,3.66,1.98,7.47,2.97,11.43,2.97Z"/><path class="cls-1" d="M264.96,42.66l18.54.18,24.84-.72c2.04,0,3.87.21,5.49.63,1.62.42,2.91,1.38,3.87,2.88.96,1.5,1.44,3.93,1.44,7.29s-.48,5.61-1.44,7.11c-.96,1.5-2.22,2.49-3.78,2.97-1.56.48-3.36.72-5.4.72l-24.12-.54-20.16.18c-3-.12-5.07-.96-6.21-2.52-1.14-1.56-1.71-4.2-1.71-7.92s.69-6.21,2.07-7.83c1.38-1.62,3.57-2.43,6.57-2.43ZM282.78,129.6c-3.24,0-5.61-.48-7.11-1.44-1.5-.96-2.46-2.31-2.88-4.05-.42-1.74-.63-3.57-.63-5.49V31.32c0-4.44.6-8.55,1.8-12.33,1.2-3.78,3.15-7.08,5.85-9.9,2.7-2.82,6.15-5.04,10.35-6.66,4.2-1.62,9.3-2.43,15.3-2.43,2.04,0,3.87.21,5.49.63,1.62.42,2.94,1.35,3.96,2.79,1.02,1.44,1.53,3.9,1.53,7.38s-.51,5.79-1.53,7.29c-1.02,1.5-2.37,2.43-4.05,2.79-1.68.36-3.54.54-5.58.54s-3.81.12-5.31.36c-1.5.24-2.7.66-3.6,1.26-.9.6-1.56,1.53-1.98,2.79-.42,1.26-.63,2.97-.63,5.13v88.02c0,1.92-.21,3.69-.63,5.31-.42,1.62-1.41,2.91-2.97,3.87-1.56.96-4.02,1.44-7.38,1.44Z"/><path class="cls-1" d="M363.42,129.6c-4.44,0-8.37-.3-11.79-.9-3.42-.6-6.36-1.62-8.82-3.06-2.46-1.44-4.5-3.39-6.12-5.85-1.62-2.46-2.79-5.49-3.51-9.09s-1.08-7.92-1.08-12.96V11.16c0-2.16.18-4.05.54-5.67s1.32-2.94,2.88-3.96c1.56-1.02,4.02-1.53,7.38-1.53s5.79.48,7.29,1.44c1.5.96,2.46,2.28,2.88,3.96.42,1.68.63,3.54.63,5.58v85.86c0,2.28.15,4.17.45,5.67.3,1.5.84,2.7,1.62,3.6.78.9,1.8,1.53,3.06,1.89,1.26.36,2.79.54,4.59.54,1.56,0,2.97.18,4.23.54,1.26.36,2.28,1.26,3.06,2.7.78,1.44,1.17,3.78,1.17,7.02s-.39,5.82-1.17,7.38c-.78,1.56-1.83,2.52-3.15,2.88-1.32.36-2.7.54-4.14.54Z"/><path class="cls-1" d="M418.85,130.86c-5.64,0-11.22-1.14-16.74-3.42-5.52-2.28-10.47-5.43-14.85-9.45-4.38-4.02-7.83-8.82-10.35-14.4-2.52-5.58-3.78-11.67-3.78-18.27s1.17-12.3,3.51-17.82c2.34-5.52,5.61-10.38,9.81-14.58,4.2-4.2,9.03-7.47,14.49-9.81,5.46-2.34,11.31-3.51,17.55-3.51,8.52,0,16.2,2.01,23.04,6.03,6.84,4.02,12.3,9.45,16.38,16.29,4.08,6.84,6.12,14.58,6.12,23.22,0,6.84-1.26,13.08-3.78,18.72-2.52,5.64-5.94,10.47-10.26,14.49-4.32,4.02-9.18,7.11-14.58,9.27-5.4,2.16-10.92,3.24-16.56,3.24ZM418.49,109.44c3.96,0,7.77-.99,11.43-2.97,3.66-1.98,6.66-4.83,9-8.55,2.34-3.72,3.51-8.1,3.51-13.14,0-4.68-1.02-8.82-3.06-12.42-2.04-3.6-4.89-6.39-8.55-8.37-3.66-1.98-7.83-2.97-12.51-2.97-4.32,0-8.28,1.05-11.88,3.15-3.6,2.1-6.45,4.95-8.55,8.55-2.1,3.6-3.15,7.68-3.15,12.24,0,5.04,1.14,9.39,3.42,13.05,2.28,3.66,5.25,6.48,8.91,8.46,3.66,1.98,7.47,2.97,11.43,2.97Z"/></svg>