<?xml version="1.0" encoding="UTF-8"?><svg id="Layer_1" xmlns="http://www.w3.org/2000/svg" viewBox="0 0 720 720"><defs><style>.cls-1{fill:#71b5e4;stroke-width:0px;}</style></defs><path class="cls-1" d="m452.32,176.89c-.3-3.63-.72-9.52-1.29-15.39-.66-6.79,2.37-11.26,8.91-12.28,6.73-1.06,11.05,2.69,11.88,9.3,6.06,48.4-8.05,90.83-38.99,127.88-2.16,2.58-7.91,4.06-11.42,3.32-41.49-8.78-82.83-9.05-124.28.27-3.15.71-8.45-.91-10.42-3.34-26.19-32.28-40.7-68.95-40-110.97.1-6.02.51-12.09,1.42-18.04,1.03-6.74,5.75-9.44,12.18-8.45,6.21.96,9.25,5.19,8.57,11.37-4.37,39.14,5.7,74.25,29.13,105.68.4.54,1.57.91,2.27.78,39.78-7.63,79.54-7.6,119.32.01.67.13,1.78-.2,2.17-.71,19.8-25.67,30.05-54.71,30.56-89.43Z"/><path class="cls-1" d="m516.41,177.7c-.36,46.26-13.54,86.5-38.67,122.96-.61.89-.65,2.77-.13,3.75,12.71,24.04,9.19,47.87-1.87,71.01-16.97,35.52-43.14,62.15-78.88,79.33-2.01.97-1.81,7.1-2.15,10.87-.72,8.06-.89,16.18-1.71,24.22-.68,6.67-5.01,10.36-11.53,10.02-6.86-.36-10.49-4.76-10.11-11.69.76-13.84,1.27-27.73,3.03-41.45.45-3.56,4.44-8.08,7.93-9.63,40.84-18.17,69.2-47.33,80.31-91.29,3.35-13.26.93-26.27-8.5-37.27-3.86-4.51-2.78-9.31.69-13.79,26.38-34.07,40.25-72.56,40.46-115.75.04-7.57-.93-15.15-1.51-22.72-.53-6.87,2.65-11.21,9.3-12.09,6.68-.88,10.43,3.04,11.56,9.41.58,3.24.86,6.54,1.07,9.82.35,5.38.55,10.78.71,14.29Z"/><path class="cls-1" d="m338,499.51c-7.11-.03-10.41-4.22-11.12-14.31-.64-9.13-1.02-18.28-1.88-27.38-.15-1.64-1.69-3.82-3.18-4.57-41.4-20.86-70.47-52.55-84.13-97.18-5.55-18.12-4.17-36.24,5.56-53.14.29-.5.09-1.6-.29-2.14-31.69-44.48-44.34-93.83-37.65-148.02.81-6.59,5.72-9.63,12.3-8.56,6.16,1,9.19,5.25,8.46,11.32-6.1,51.13,6.94,96.99,38,137.79,4.46,5.86,4.53,10.81.33,16.59-12.61,17.34-9.93,35.73-1.87,53.48,15.57,34.32,40.49,59.46,76.01,73.35,7.35,2.87,7.24,9.26,7.61,15.55.71,12.1,1.66,24.19,2.34,36.3.33,5.9-4.69,10.95-10.49,10.92Z"/><path class="cls-1" d="m317,350.57c7.49,2.08,16.35,3.65,24.49,6.97,16.07,6.55,31.19,5.46,46.59-2.11,16.32-8.01,32.9-3.93,49.27.59.2.05.38,1.14.18,1.54-16.46,32.44-41.14,55.28-77.04,63.97-4.72,1.14-10.84-2.56-16.08-4.61-28.72-11.26-48.27-32.26-62.17-59.15-.14-.28.3-1.25.57-1.3,10.88-1.92,21.78-3.78,34.18-5.9Z"/><path class="cls-1" d="m359.96,576c-15.7.12-28.05-15.5-22.25-30.17,4.91-12.42,12.4-23.84,19.1-35.49.58-1,5.26-1.23,5.63-.53,7.21,13.56,16.1,26.71,20.37,41.21,3.77,12.78-9.2,24.88-22.86,24.98Z"/></svg>